<svg xmlns="http://www.w3.org/2000/svg" width="20" height="20" viewBox="0 -960 960 960"><path d="M263.72-96Q234-96 213-117.15T192-168v-456q0-29.7 21.15-50.85T264-696h72v-16q0-60 40.5-106T480-864q60 0 102 42t42 102v24h72q29.7 0 50.85 21.15T768-624v456q0 29.7-21.16 50.85T695.96-96Zm.28-72h432v-456h-72v60q0 15.3-10.29 25.65T588.21-528t-25.71-10.35T552-564v-60H408v60q0 15.3-10.29 25.65T372.21-528t-25.71-10.35T336-564v-60h-72Zm144-528h144v-24q0-29.7-21.21-50.85t-51-21.15T429-770.85 408-720ZM264-168v-456Z"/></svg>